<svg aria-hidden="true" style="position: absolute; width: 0; height: 0; overflow: hidden;" version="1.1" xmlns="http://www.w3.org/2000/svg" xmlns:xlink="http://www.w3.org/1999/xlink">
<defs>
<symbol id="person-black" viewBox="0 0 32 32">
<path d="M16.007 16.007c2.948 0 5.336-2.388 5.336-5.336s-2.388-5.336-5.336-5.336-5.336 2.388-5.336 5.336 2.388 5.336 5.336 5.336zM16.007 18.675c-3.562 0-10.671 1.787-10.671 5.336v1.334c0 0.734 0.6 1.334 1.334 1.334h18.675c0.734 0 1.334-0.6 1.334-1.334v-1.334c0-3.548-7.11-5.336-10.671-5.336z"></path>
</symbol>
<symbol id="phone-black" viewBox="0 0 32 32">
<path d="M24.892 19.782l-3.269-0.373c-0.785-0.090-1.557 0.18-2.111 0.734l-2.368 2.368c-3.642-1.853-6.628-4.827-8.482-8.482l2.381-2.381c0.553-0.553 0.824-1.326 0.734-2.111l-0.373-3.243c-0.154-1.3-1.248-2.278-2.561-2.278h-2.227c-1.454 0-2.664 1.21-2.574 2.664 0.682 10.992 9.473 19.77 20.452 20.452 1.454 0.090 2.664-1.12 2.664-2.574v-2.227c0.013-1.3-0.965-2.394-2.265-2.548z"></path>
</symbol>
<symbol id="email-black" viewBox="0 0 32 32">
<path d="M26.678 5.336h-21.342c-1.467 0-2.654 1.2-2.654 2.668l-0.013 16.007c0 1.467 1.2 2.668 2.668 2.668h21.342c1.467 0 2.668-1.201 2.668-2.668v-16.007c0-1.467-1.201-2.668-2.668-2.668zM26.144 11.005l-9.431 5.896c-0.427 0.267-0.987 0.267-1.414 0l-9.431-5.896c-0.333-0.213-0.534-0.574-0.534-0.96 0-0.894 0.974-1.427 1.734-0.96l8.937 5.589 8.937-5.589c0.76-0.467 1.734 0.067 1.734 0.96 0 0.387-0.2 0.747-0.534 0.96z"></path>
</symbol>
<symbol id="icon-send" viewBox="0 0 32 32">
<path fill="#fff" style="fill: var(--color1, #fff)" d="M32.005 0l-32.005 18.003 10.228 3.788 15.776-14.79-12 16.189 0.010 0.004-0.012-0.004v8.815l5.736-6.692 7.266 2.691 5.001-28.005z"></path>
</symbol>
</defs>
</svg>
