<svg aria-hidden="true" style="position: absolute; width: 0; height: 0; overflow: hidden;" version="1.1" xmlns="http://www.w3.org/2000/svg" xmlns:xlink="http://www.w3.org/1999/xlink">
<defs>
<symbol id="vector5" viewBox="0 0 34 32">
<path d="M30.351 3.551v24.898h-26.558v-24.898h26.558zM30.351-0.006h-26.558c-2.087 0-3.794 1.601-3.794 3.557v24.898c0 1.956 1.707 3.557 3.794 3.557h26.558c2.087 0 3.794-1.601 3.794-3.557v-24.898c0-1.956-1.707-3.557-3.794-3.557z"></path>
</symbol>
<symbol id="icon-check" viewBox="0 0 34 32">
<path fill="#2196f3" style="fill: var(--color1, #2196f3)" d="M4.268-0.006h25.609c2.357 0 4.268 1.911 4.268 4.268v23.475c0 2.357-1.911 4.268-4.268 4.268h-25.609c-2.357 0-4.268-1.911-4.268-4.268v-23.475c0-2.357 1.911-4.268 4.268-4.268z"></path>
<path fill="#fff" style="fill: var(--color2, #fff); stroke: var(--color2, #fff)" stroke="#fff" stroke-linejoin="miter" stroke-linecap="butt" stroke-miterlimit="4" stroke-width="0.4267" d="M8.445 16.537l-0.147-0.14-2.205 2.089 7.77 7.412 16.324-15.573-2.191-2.090-14.133 13.47-5.418-5.168z"></path>
</symbol>
</defs>
</svg>
